<?xml version="1.0" standalone="no"?>
<!DOCTYPE svg PUBLIC "-//W3C//DTD SVG 20010904//EN"
 "http://www.w3.org/TR/2001/REC-SVG-20010904/DTD/svg10.dtd">
<svg version="1.0" xmlns="http://www.w3.org/2000/svg"
 width="1108.000000pt" height="1108.000000pt" viewBox="0 0 1108.000000 1108.000000"
 preserveAspectRatio="xMidYMid meet">
<metadata>
Created by potrace 1.11, written by Peter Selinger 2001-2013
</metadata>
<g transform="translate(0.000000,1108.000000) scale(0.100000,-0.100000)"
fill="#000000" stroke="none">
<path d="M6029 9916 c-2 -2 -53 -7 -114 -10 -60 -4 -130 -9 -155 -12 -25 -2
-70 -6 -100 -9 -30 -2 -55 -5 -55 -5 0 -1 -16 -3 -35 -5 -54 -6 -126 -14 -202
-25 -38 -6 -74 -8 -79 -4 -5 3 -9 1 -9 -3 0 -5 -17 -10 -39 -11 -21 -2 -49 -5
-62 -7 -13 -3 -42 -8 -64 -10 -22 -3 -53 -8 -70 -12 -16 -3 -39 -7 -50 -9 -31
-4 -147 -23 -175 -29 -14 -3 -41 -8 -60 -11 -19 -3 -43 -7 -52 -10 -10 -3 -28
-7 -40 -9 -13 -2 -36 -7 -53 -10 -48 -10 -68 -13 -100 -18 -16 -3 -70 -15
-120 -27 -49 -11 -112 -26 -140 -32 -27 -6 -68 -15 -90 -21 -37 -10 -63 -15
-92 -21 -7 -1 -16 -5 -19 -9 -4 -4 -16 -7 -26 -7 -11 0 -59 -11 -107 -25 -48
-14 -97 -27 -107 -30 -10 -2 -50 -13 -89 -25 -38 -12 -80 -23 -92 -26 -12 -2
-35 -9 -50 -15 -16 -6 -30 -11 -33 -11 -3 0 -15 -4 -28 -9 -13 -5 -27 -9 -31
-9 -7 0 -153 -46 -211 -66 -8 -3 -15 -5 -15 -4 0 0 -36 -12 -80 -28 -44 -16
-84 -30 -90 -32 -29 -8 -223 -79 -280 -102 -27 -11 -54 -21 -60 -23 -5 -1 -19
-6 -30 -10 -11 -5 -81 -33 -155 -63 -74 -30 -147 -61 -162 -68 -16 -8 -28 -12
-28 -8 0 4 -6 2 -12 -4 -7 -5 -41 -22 -76 -36 -83 -35 -304 -138 -467 -217
-71 -35 -132 -62 -134 -60 -2 1 -7 -1 -10 -6 -3 -5 -49 -31 -101 -57 -52 -27
-117 -61 -145 -76 -27 -15 -81 -44 -120 -65 -307 -167 -791 -485 -981 -644
-17 -14 -40 -33 -50 -41 -47 -36 -210 -176 -222 -190 -29 -34 -54 -108 -57
-165 -5 -141 94 -298 275 -434 65 -48 234 -141 295 -162 145 -48 240 -60 337
-43 85 16 118 34 187 100 95 90 123 114 221 188 52 39 97 73 100 76 3 3 28 23
55 45 28 21 52 42 55 45 3 3 25 21 50 40 25 19 47 37 50 40 4 4 111 89 175
138 6 4 29 22 51 40 23 17 47 32 54 32 6 0 8 5 5 10 -3 6 -2 10 3 10 9 0 162
106 192 133 8 7 83 58 165 113 83 54 152 102 153 107 2 4 8 7 13 7 6 0 43 23
84 50 41 28 78 50 84 50 5 0 11 3 13 8 5 11 243 153 428 255 30 16 80 44 110
62 96 55 751 375 769 375 3 0 20 7 36 16 32 17 362 154 370 154 3 0 24 8 48
19 81 36 150 61 166 61 10 0 21 4 27 9 7 6 205 77 244 86 3 1 12 5 20 8 17 7
361 106 388 112 9 2 60 13 112 25 122 28 136 31 260 53 47 9 105 19 130 22 25
3 56 8 70 10 38 7 142 18 173 19 15 1 27 4 27 9 0 4 8 3 18 -2 10 -5 23 -6 29
-3 24 15 445 21 588 8 113 -9 149 -15 218 -32 34 -8 71 -17 82 -19 41 -10 85
-36 79 -48 -19 -32 -126 -185 -146 -208 -13 -15 -41 -48 -63 -75 -114 -137
-408 -428 -794 -784 -103 -95 -181 -167 -226 -209 -56 -51 -280 -259 -330
-306 -17 -16 -54 -50 -81 -75 -101 -91 -238 -216 -264 -240 -23 -21 -132 -120
-216 -195 -12 -11 -55 -50 -96 -87 -40 -36 -82 -75 -94 -85 -23 -20 -178 -160
-230 -208 -17 -16 -45 -41 -60 -54 -16 -13 -52 -45 -79 -70 -51 -46 -208 -188
-251 -226 -29 -27 -169 -153 -204 -185 -203 -186 -250 -230 -400 -370 -63 -59
-131 -122 -150 -140 -295 -272 -901 -877 -1157 -1156 -140 -153 -244 -267
-273 -301 -29 -34 -86 -129 -104 -173 -54 -135 -32 -292 52 -365 15 -13 58
-34 95 -46 57 -18 82 -21 160 -16 51 3 103 9 117 12 14 3 37 7 51 9 28 5 232
70 264 86 21 10 76 32 85 34 3 1 31 14 64 29 32 15 64 27 71 27 7 0 18 7 25
15 7 8 19 15 26 15 14 0 23 4 81 34 17 9 38 16 47 16 9 0 16 4 16 8 0 4 17 14
37 21 20 8 78 33 128 56 49 23 113 53 140 66 28 12 52 23 55 24 3 1 25 11 50
24 25 12 53 24 64 26 10 3 26 11 36 20 9 8 24 15 33 15 9 0 19 5 22 10 4 6 11
8 16 5 5 -4 9 -1 9 4 0 6 4 11 9 11 6 0 58 23 118 52 59 29 110 52 113 53 3 0
33 15 68 33 34 17 64 32 67 32 3 1 76 35 162 76 184 88 205 98 216 96 4 -1 7
3 7 8 0 6 4 10 9 10 5 0 80 34 166 75 86 41 160 75 165 75 6 0 10 5 10 10 0 6
6 10 14 10 8 0 47 17 87 37 41 20 76 38 79 38 3 1 55 26 115 55 61 29 112 54
115 55 3 0 29 13 58 28 28 15 52 24 52 20 0 -5 4 -3 8 2 4 6 34 24 67 39 33
16 92 44 130 62 39 19 76 34 83 34 6 0 12 4 12 9 0 5 10 12 23 16 12 4 24 8
27 9 3 1 55 26 115 55 305 148 414 199 425 198 3 0 24 12 47 26 24 15 45 27
48 27 6 0 194 89 308 145 48 24 87 41 87 37 0 -4 4 -2 8 3 7 10 181 95 236
115 16 6 45 13 64 16 35 6 35 6 28 -27 -3 -18 -10 -35 -15 -39 -4 -3 -18 -23
-30 -45 -30 -55 -59 -101 -178 -275 -57 -83 -103 -155 -103 -160 0 -6 -4 -10
-10 -10 -5 0 -10 -5 -10 -10 0 -6 -12 -29 -27 -53 -15 -23 -28 -48 -29 -55 -1
-7 -9 -24 -18 -37 -8 -13 -32 -77 -52 -142 -31 -101 -36 -135 -40 -238 -2 -78
1 -139 10 -175 14 -60 52 -147 73 -168 7 -7 13 -17 13 -22 0 -14 140 -150 155
-150 8 0 15 -3 15 -8 0 -18 150 -82 257 -108 73 -18 399 -29 418 -14 6 4 28
10 50 14 66 12 170 54 209 87 92 74 136 155 132 242 -7 148 -145 281 -280 272
-44 -3 -127 -25 -196 -52 -8 -4 -17 -7 -20 -8 -3 -1 -12 -4 -20 -8 -31 -12
-86 -24 -112 -26 -15 0 -31 -2 -35 -3 -4 -2 -29 5 -55 15 -75 29 -104 110 -77
212 13 51 97 225 108 225 5 0 11 10 15 23 3 12 17 34 31 49 14 15 25 30 25 33
0 4 35 52 78 108 180 235 217 282 222 287 13 11 137 178 172 230 20 30 48 82
63 115 27 57 31 69 51 125 10 27 10 108 -1 154 -12 56 -59 137 -107 186 -43
43 -102 74 -168 87 -35 7 -139 7 -195 0 -55 -6 -229 -49 -265 -64 -8 -3 -17
-7 -20 -8 -68 -21 -126 -39 -130 -40 -3 0 -10 -3 -16 -7 -6 -4 -21 -9 -35 -12
-13 -2 -45 -13 -71 -25 -27 -11 -48 -18 -48 -14 0 3 -7 0 -15 -7 -8 -7 -15
-10 -15 -7 0 4 -20 -2 -45 -13 -25 -11 -45 -16 -45 -12 0 4 -4 1 -9 -7 -5 -8
-17 -15 -28 -16 -20 -2 -23 -3 -223 -87 -80 -33 -150 -64 -156 -69 -6 -5 -14
-6 -17 -2 -4 3 -7 1 -7 -5 0 -7 -3 -11 -7 -10 -10 2 -33 -8 -156 -66 -55 -25
-101 -46 -103 -46 -2 0 -133 -63 -291 -141 -292 -143 -332 -162 -346 -163 -4
-1 -11 -7 -16 -14 -5 -8 -11 -13 -15 -12 -12 2 -348 -161 -372 -181 -8 -6 -14
-9 -14 -6 0 3 -98 -44 -217 -104 -120 -60 -223 -109 -230 -109 -6 0 -13 -3
-15 -7 -1 -5 -23 -18 -48 -29 -118 -57 -256 -127 -267 -136 -7 -6 -13 -8 -13
-4 0 4 -29 -9 -65 -29 -36 -19 -72 -35 -79 -35 -7 0 -19 -6 -25 -14 -7 -8 -26
-18 -42 -21 -16 -4 -29 -11 -29 -16 0 -5 -3 -8 -7 -7 -7 2 -88 -35 -245 -112
-31 -16 -59 -26 -62 -22 -3 3 -6 0 -6 -6 0 -7 -4 -12 -9 -12 -5 0 -57 -22
-115 -50 -58 -27 -109 -50 -114 -51 -4 -1 -25 -11 -47 -22 -22 -12 -42 -22
-45 -22 -12 -4 -61 -25 -129 -59 -41 -20 -76 -34 -78 -33 -2 2 14 23 34 47 48
56 453 465 453 458 0 -3 19 13 43 36 23 23 73 68 111 101 79 68 147 128 185
165 15 14 78 72 141 130 146 135 158 146 281 261 57 53 120 111 139 129 37 34
216 200 280 260 21 19 79 73 130 120 50 47 113 105 139 130 27 25 92 86 146
135 54 50 114 106 135 125 99 92 258 240 285 265 17 15 75 68 129 118 55 51
109 101 122 112 12 11 61 56 110 100 126 116 126 115 199 179 36 33 79 71 94
85 16 14 56 51 90 81 35 30 77 69 95 85 18 17 62 56 97 88 114 104 280 260
383 360 55 53 104 97 108 97 4 0 8 3 8 8 0 4 48 57 106 117 59 61 136 143 173
184 36 40 80 88 96 105 30 32 185 222 218 267 9 13 37 52 62 86 25 35 45 65
45 68 0 2 18 35 41 71 111 182 144 323 99 423 -19 41 -70 111 -70 95 0 -3 -9
5 -21 20 -11 14 -27 26 -35 26 -8 0 -14 4 -14 8 0 6 -76 47 -190 102 -19 9
-212 70 -237 74 -10 2 -36 9 -58 14 -37 10 -67 17 -120 27 -11 2 -31 6 -45 9
-14 3 -43 8 -65 11 -22 3 -53 8 -70 11 -32 6 -670 16 -676 10z"/>
<path d="M7905 7433 c-115 -21 -150 -31 -212 -60 -83 -40 -170 -118 -203 -183
-54 -105 -31 -230 57 -311 42 -39 124 -83 175 -95 118 -28 272 -23 354 11 18
7 35 11 38 7 3 -3 6 0 6 6 0 7 6 12 14 12 8 0 32 10 53 22 204 119 259 336
119 471 -19 17 -41 38 -50 45 -18 15 -102 51 -125 55 -9 1 -21 6 -28 10 -13 8
-167 16 -198 10z"/>
<path d="M9977 6674 c-1 -1 -51 -5 -112 -8 -60 -4 -118 -9 -130 -11 -11 -2
-45 -7 -75 -10 -166 -18 -214 -25 -335 -51 -113 -25 -197 -46 -245 -61 -25 -8
-52 -16 -60 -18 -101 -21 -448 -175 -502 -223 -10 -8 -18 -12 -18 -8 0 4 -18
-6 -39 -23 -21 -17 -44 -31 -50 -31 -6 0 -11 -4 -11 -10 0 -5 -5 -10 -11 -10
-15 0 -188 -148 -246 -212 -27 -28 -56 -60 -65 -70 -10 -10 -18 -20 -18 -23 0
-4 -57 -84 -81 -113 -6 -8 -35 -61 -65 -120 -49 -97 -82 -187 -98 -267 -4 -16
-9 -43 -13 -60 -6 -29 -8 -184 -3 -235 13 -125 76 -279 166 -401 112 -153 380
-337 609 -419 33 -12 67 -24 75 -27 8 -3 20 -7 27 -9 6 -1 27 -7 45 -13 30 -9
49 -14 113 -26 32 -7 60 -13 60 -15 0 0 25 -3 55 -5 30 -3 69 -7 85 -9 17 -3
66 -8 110 -11 129 -11 160 -13 162 -14 2 -1 -16 -18 -38 -38 -89 -83 -194
-196 -252 -273 -23 -30 -44 -57 -47 -60 -28 -27 -160 -277 -160 -303 0 -8 -3
-17 -7 -21 -5 -4 -8 -11 -9 -14 0 -4 -10 -38 -23 -77 -12 -38 -24 -86 -27
-105 -3 -19 -8 -38 -10 -41 -2 -4 -6 -24 -9 -45 -2 -22 -9 -61 -14 -89 -9 -48
-8 -363 2 -415 2 -14 8 -45 12 -70 4 -25 8 -49 9 -55 4 -17 17 -79 20 -95 3
-19 35 -130 43 -150 3 -8 7 -20 9 -27 5 -25 58 -152 97 -233 131 -271 327
-525 552 -718 33 -28 76 -64 95 -81 34 -29 110 -72 140 -79 47 -10 120 -9 144
3 14 8 26 12 26 9 0 -6 22 13 58 48 42 42 51 55 45 62 -4 3 -2 6 4 6 11 0 25
47 27 95 1 17 5 35 9 42 4 6 4 14 -1 17 -4 2 -9 19 -10 38 -3 40 -17 88 -43
145 -10 24 -19 45 -19 48 0 11 -171 265 -197 293 -7 7 -29 39 -49 70 -20 31
-44 68 -53 82 -67 100 -162 356 -198 530 -28 139 -37 350 -19 430 23 103 32
133 54 190 74 188 204 344 389 466 45 30 89 54 97 54 9 0 16 4 16 9 0 7 134
65 175 75 6 2 19 6 30 10 45 17 73 25 140 41 82 20 197 63 207 79 4 6 8 8 8 3
0 -12 83 46 115 82 58 65 78 115 78 196 0 51 -5 72 -27 117 -62 128 -220 215
-441 243 -22 3 -55 8 -73 11 -17 4 -47 8 -65 10 -17 2 -45 5 -62 7 -16 3 -57
7 -90 11 -33 3 -78 8 -100 11 -60 7 -155 17 -200 20 -22 2 -40 4 -40 5 0 1
-22 4 -50 6 -27 2 -66 6 -85 8 -19 2 -57 7 -85 10 -27 3 -61 8 -75 11 -14 3
-43 7 -65 10 -22 3 -51 7 -65 10 -14 3 -38 7 -55 10 -111 16 -227 38 -283 54
-18 5 -36 10 -40 11 -4 0 -25 5 -47 11 -22 6 -44 12 -50 14 -10 2 -15 4 -85
32 -19 8 -37 15 -40 15 -3 1 -27 14 -53 30 -26 15 -51 28 -54 28 -3 0 -30 25
-59 55 -59 61 -80 102 -90 174 -6 49 11 157 28 179 6 6 7 12 2 12 -5 0 -4 4 1
8 6 4 19 25 30 47 37 74 236 255 281 255 7 0 14 4 16 8 4 10 211 110 243 117
13 3 41 13 80 30 38 16 275 94 303 100 12 2 26 6 30 9 5 3 21 7 36 10 15 3 50
12 79 20 68 19 354 74 437 83 121 13 363 6 430 -13 33 -10 30 -9 72 -17 20 -4
38 -14 41 -21 10 -26 -47 -119 -118 -190 -77 -78 -142 -136 -155 -136 -4 0
-10 -7 -14 -15 -3 -8 -10 -15 -16 -15 -18 0 -223 -161 -273 -214 -43 -46 -121
-178 -111 -188 2 -3 0 -19 -5 -36 -7 -22 -6 -32 1 -32 7 0 7 -4 0 -12 -16 -19
24 -128 61 -170 45 -50 95 -70 175 -71 72 -1 110 4 157 23 50 19 120 55 123
63 2 4 9 7 15 7 14 0 132 79 237 159 81 61 268 242 318 306 112 144 181 278
219 425 2 8 6 57 8 109 11 225 -88 383 -310 493 -53 27 -154 63 -201 73 -41 8
-59 13 -59 15 0 1 -11 3 -25 5 -14 1 -38 5 -55 8 -96 17 -135 20 -283 22 -89
1 -163 0 -165 -1z"/>
</g>
</svg>
