<?xml version="1.0" encoding="UTF-8"?>
<svg width="137px" height="108px" viewBox="0 0 137 108" version="1.1" xmlns="http://www.w3.org/2000/svg" xmlns:xlink="http://www.w3.org/1999/xlink">
    <!-- Generator: Sketch 43 (38999) - http://www.bohemiancoding.com/sketch -->
    <title>Zig_1_</title>
    <desc>Created with Sketch.</desc>
    <defs></defs>
    <g id="Page-1" stroke="none" stroke-width="1" fill="none" fill-rule="evenodd">
        <g id="zig-logo" fill-rule="nonzero" fill="#3f464c">
            <path d="M108,62.4 C105.3,61.5 102.9,60 103.5,57.1 C104.3,53.3 108.7,51.5 112,50.3 C115.4,49.1 118.9,48.1 122.5,47.7 C124.3,47.5 126.1,47.5 127.9,47.9 C129.2,48.2 129.4,48.1 128.8,49.2 C127.7,51.2 124.9,52.9 123.1,54.3 C122,55.2 121,56.3 120.7,57.7 C120.5,58.8 120.8,60 121.6,60.8 C122.7,61.8 124.5,61.6 125.9,61 C130.6,58.7 137.7,52.6 136.6,46.6 C135.7,41.6 128.9,40.5 124.7,40.6 C116.9,40.8 108.2,42.4 102.2,47.7 L102.2,47.7 C98.4,51.1 95.6,56.5 97.3,61.6 C97.8,63.2 98.8,64.6 99.9,65.7 C101.1,66.9 102.6,67.9 104.1,68.7 C105.7,69.5 107.3,70.1 109.1,70.5 C109.9,70.7 110.8,70.8 111.6,70.9 C112.5,71 115,71.2 115.3,71.2 C115.1,71.3 114.6,71.7 114.5,71.9 C113.1,73.2 111.8,74.7 110.7,76.3 C109.8,77.8 109,79.4 108.6,81 C108.1,82.6 107.9,84.3 107.8,86 C107.8,87.7 107.9,89.4 108.3,91.1 C108.6,92.8 109.2,94.5 109.9,96.1 C110.6,97.7 111.5,99.3 112.5,100.7 C113.5,102.2 114.6,103.5 115.9,104.7 C116.7,105.4 117.5,106.1 118.3,106.8 C119.2,107.5 120.5,108 121.6,107.6 C122.4,107.3 122.9,106.7 123.3,106 C123.6,105.3 123.7,104.4 123.5,103.6 C123.1,100.7 120.2,98.1 118.8,95.4 C117.6,93 116.7,90.4 116.4,87.7 C115.8,82 118.8,77.4 124,75.1 C125.3,74.5 126.7,74.2 128.1,73.8 L128.2,73.8 C130.2,73.1 132.5,72 132.4,69.5 C132.3,67.1 129.9,65.8 127.8,65.4 C122.9,64.5 118,64.4 113.1,63.5 C111.7,63.3 109.8,63 108,62.4 Z M97.3,31.2 C94.2,31.4 91.7,33.5 91.7,35.7 C91.7,38 94.2,39.6 97.3,39.4 C100.4,39.2 102.9,37.2 102.9,34.9 C102.9,32.6 100.4,31 97.3,31.2 L97.3,31.2 Z M87.1,18.4 C81.1,24.9 74,30.7 67.5,36.7 C59.9,43.7 52.2,50.8 44.6,57.8 C41.3,60.5 38.3,63.5 35.4,66.7 L36.7,66.1 C46.6,61.7 56.3,56.7 66.1,52 C72.1,49.1 78.1,46.2 84.5,44.2 C86.9,43.4 90.9,42 93.2,43.8 C94,44.4 94.6,45.6 94.8,46.5 C95.4,49.3 92.2,52.7 90.6,54.8 C89.3,56.6 84,62.4 85.5,64.7 C86.9,67 90.4,63.9 92.4,64.4 C94.2,64.8 95.7,67 95,68.8 C93.5,72.7 86.4,72.5 83.3,71.1 C81.5,70.3 79.9,68.9 79.2,67.1 C78.3,64.8 78.8,62.2 79.7,59.9 C81.1,56.6 83.7,54 85.2,50.9 C85.2,50.8 85.2,50.2 82,51.8 C81,52.3 79.9,52.8 78.9,53.3 C76.6,54.4 74.2,55.5 71.9,56.6 C67.2,58.8 42.9,70.5 35.2,73.8 C32.9,74.8 30.6,75.9 28.1,76.4 C27.5,76.5 24.6,77.2 23,75.6 C22.1,74.5 22.1,72.7 22.6,71.4 C23.1,70.2 24,69.2 24.8,68.3 C38,53.7 53.2,41.1 67.7,27.8 C71,24.7 74.4,21.7 77.7,18.6 C80.8,15.6 84.5,12.3 86.7,8.6 C86.7,8.5 86.3,8.3 86.3,8.3 C83.4,7.3 80.1,7.3 77.1,7.4 C67.4,7.7 57.9,10.9 49.1,14.7 C46.9,15.7 44.7,16.7 42.5,17.8 C34.5,21.8 26.9,26.7 19.9,32.3 C18.9,33.1 18,33.9 17,34.6 C16.1,35.3 14.8,36.2 14,37.1 C10.5,41.5 -2.8,33.7 1.4,28.4 C8.3,22.3 16.4,17.7 24.7,13.8 C33,9.9 41.6,6.8 50.5,4.6 C57.5,2.9 64.6,1.6 71.8,1 C74.1,0.8 76.4,0.7 78.7,0.7 C82,0.7 85.2,1.1 88.4,2.1 C89.5,2.4 90.5,2.8 91.5,3.3 C92.6,3.9 93.7,4.6 94.2,5.7 C94.9,7.3 94,9.2 93.1,10.7 C91.5,13.5 89.3,16 87.1,18.4 Z" id="Zig_1_"></path>
        </g>
    </g>
</svg>