<svg id="Laag_1" data-name="Laag 1" xmlns="http://www.w3.org/2000/svg" viewBox="0 0 276.95 219.03"><defs><style>.cls-1{fill:#fff;fill-rule:evenodd;}</style></defs><title>Zig-logo Wit</title><path class="cls-1" d="M608,867c-5.55-1.85-10.49-4.93-9.26-10.89,1.65-7.81,10.7-11.5,17.49-14a97.74,97.74,0,0,1,21.6-5.34,33.68,33.68,0,0,1,11.11.41c2.67,0.62,3.09.41,1.85,2.67-2.26,4.11-8,7.6-11.73,10.48-2.26,1.85-4.32,4.11-4.94,7a7.23,7.23,0,0,0,1.85,6.37c2.26,2.05,6,1.64,8.85.41,9.67-4.72,24.28-17.26,22-29.58C665,824.32,651,822.06,642.32,822.26c-16,.41-33.95,3.7-46.29,14.59-7.82,7-13.58,18.08-10.08,28.56a21.14,21.14,0,0,0,5.35,8.42,36.74,36.74,0,0,0,8.64,6.16,43.78,43.78,0,0,0,10.29,3.7,44.48,44.48,0,0,0,5.14.82c1.85,0.21,7,.62,7.61.62a5.56,5.56,0,0,0-1.65,1.44,55,55,0,0,0-7.82,9,36.67,36.67,0,0,0-4.32,9.66,42.83,42.83,0,0,0-1.65,10.27,45.25,45.25,0,0,0,1,10.48,46,46,0,0,0,3.29,10.27,53.31,53.31,0,0,0,5.35,9.45,44.83,44.83,0,0,0,7,8.22l4.94,4.31c1.85,1.44,4.53,2.47,6.79,1.64a6.82,6.82,0,0,0,3.5-3.29,8,8,0,0,0,.41-4.93c-0.82-6-6.79-11.3-9.67-16.85A47.28,47.28,0,0,1,625.24,919c-1.23-11.71,4.94-21.16,15.64-25.88a57.66,57.66,0,0,1,8.44-2.67h0.21c4.11-1.44,8.85-3.7,8.64-8.83-0.21-4.93-5.14-7.6-9.46-8.42-10.08-1.85-20.16-2.05-30.24-3.9A60.77,60.77,0,0,1,608,867Zm-19.9-63.72c6.41-.41,11.58,2.86,11.58,7.57s-5.17,8.8-11.58,9.21-11.58-2.86-11.58-7.57C576.48,808,581.65,803.74,588.06,803.33Zm-21.72-25.84c-12.22,13.34-26.69,25.24-39.93,37.55l-46.65,43.3A175.35,175.35,0,0,0,461,876.6l2.65-1.23c20.17-9,39.93-19.29,59.9-28.93,12.22-6,24.45-11.9,37.49-16,4.89-1.64,13-4.51,17.72-.82a10.34,10.34,0,0,1,3.26,5.54c1.22,5.75-5.3,12.72-8.56,17-2.65,3.69-13.45,15.6-10.39,20.32,2.85,4.72,10-1.64,14.06-.62,3.67,0.82,6.72,5.34,5.3,9-3.06,8-17.52,7.59-23.84,4.72a15.63,15.63,0,0,1-8.35-8.21c-1.83-4.72-.82-10.06,1-14.78,2.85-6.77,8.15-12.11,11.21-18.47,0-.21,0-1.44-6.52,1.85-2,1-4.28,2.05-6.32,3.08-4.69,2.26-9.58,4.51-14.26,6.77-9.58,4.51-59.08,28.52-74.77,35.3-4.69,2.05-9.37,4.31-14.47,5.34-1.22.21-7.12,1.69-10.39-1.64-1.83-2.26-1.83-6-.81-8.62a23.78,23.78,0,0,1,4.48-6.36c26.89-30,57.86-55.82,87.4-83.11,6.72-6.36,13.65-12.52,20.37-18.88,6.32-6.16,13.85-12.93,18.34-20.52a2.14,2.14,0,0,0-.82-0.62c-5.91-2.05-12.63-2.05-18.74-1.85-19.76.62-39.12,7.18-57,15-4.48,2.05-9,4.1-13.45,6.36a260,260,0,0,0-46,29.76c-2,1.64-3.87,3.28-5.91,4.72a47.74,47.74,0,0,0-6.11,5.13c-7.13,9-34.23-7-25.67-17.85,14.06-12.52,30.56-22,47.47-30a283.78,283.78,0,0,1,96-26.27q7-.62,14.06-0.62A64.93,64.93,0,0,1,569,744a33.64,33.64,0,0,1,6.32,2.46c2.24,1.23,4.48,2.67,5.5,4.93,1.43,3.28-.41,7.18-2.24,10.26C575.31,767.43,570.83,772.56,566.34,777.49Z" transform="translate(-390.09 -741.17)"/></svg>